<svg width="496" height="112" viewBox="0 0 496 112" fill="none" xmlns="http://www.w3.org/2000/svg">
<path d="M50.6663 111.991V79.6035C46.1271 78.5806 42.0727 76.2844 38.8973 73.1091C34.5233 68.7297 31.8116 62.6828 31.8116 55.9966C31.8116 49.3103 34.5233 43.2633 38.8973 38.8893C42.0727 35.714 46.1324 33.4178 50.6663 32.3949V0.0078125C37.2671 1.27048 25.2373 7.2322 16.2388 16.2307C7.26696 25.1972 1.31584 37.1845 0.0265344 50.5357H10.7726C12.0139 40.1414 16.7609 30.8179 23.7934 23.7853C29.3129 18.2658 36.2389 14.1529 43.996 12.0431V23.2525C39.1957 25.016 34.891 27.7971 31.348 31.3453C25.0347 37.6586 21.1296 46.3747 21.1296 56.0072C21.1296 65.6396 25.0347 74.3611 31.348 80.6691C34.891 84.212 39.1957 86.9984 43.996 88.7619V99.9659C36.2442 97.8509 29.3129 93.7432 23.7934 88.2238C16.7023 81.1326 11.9393 71.7185 10.7406 61.223H0C1.24135 74.6701 7.20835 86.7533 16.2388 95.7784C25.2373 104.777 37.2671 110.739 50.6663 112.001V111.991Z" fill="url(#paint0_linear_8368_20199)"/>
<path d="M101.276 61.2152C100.082 71.7107 95.3141 81.1301 88.2283 88.216C82.7088 93.7354 75.7775 97.843 68.0204 99.9581V88.7541C72.8207 86.9906 77.1254 84.2042 80.6737 80.6613C86.9817 74.3479 90.8922 65.6319 90.8922 55.9994C90.8922 46.367 86.987 37.6455 80.6737 31.3375C77.1308 27.7946 72.8207 25.0082 68.0204 23.2447V12.0353C75.7722 14.1504 82.7035 18.258 88.2283 23.7775C95.2609 30.81 100.002 40.1282 101.249 50.5279H111.995C110.706 37.1767 104.749 25.1947 95.7829 16.2229C86.7845 7.22439 74.7546 1.26266 61.3555 0V32.3871C65.8893 33.41 69.9491 35.7062 73.1244 38.8815C77.5037 43.2609 80.2154 49.3078 80.2154 55.9888C80.2154 62.6697 77.5037 68.7219 73.1244 73.1013C69.9491 76.2766 65.8893 78.5728 61.3555 79.5957V111.983C74.7546 110.72 86.7845 104.758 95.7829 95.7599C104.808 86.7348 110.781 74.6569 112.017 61.2045H101.276V61.2152Z" fill="url(#paint1_linear_8368_20199)"/>
<path d="M218.982 63.6396C218.982 68.437 218.158 72.8499 216.51 76.8782C214.863 80.9065 212.574 84.3855 209.644 87.3152C206.714 90.2449 203.235 92.5337 199.207 94.1816C195.215 95.793 190.857 96.5986 186.133 96.5986H166.797C162.073 96.5986 157.697 95.793 153.669 94.1816C149.64 92.5337 146.161 90.2449 143.232 87.3152C140.302 84.3855 137.995 80.9065 136.31 76.8782C134.662 72.8499 133.838 68.437 133.838 63.6396V48.5884C133.838 43.8276 134.662 39.4331 136.31 35.4048C137.995 31.3398 140.302 27.8608 143.232 24.9678C146.161 22.0381 149.64 19.7493 153.669 18.1013C157.697 16.4534 162.073 15.6294 166.797 15.6294H186.133C190.857 15.6294 195.215 16.4534 199.207 18.1013C203.235 19.7493 206.714 22.0381 209.644 24.9678C212.574 27.8608 214.863 31.3398 216.51 35.4048C218.158 39.4331 218.982 43.8276 218.982 48.5884V63.6396ZM204.7 48.5884C204.7 45.7686 204.242 43.2234 203.327 40.9529C202.448 38.6458 201.185 36.6865 199.537 35.0752C197.925 33.4272 195.966 32.1638 193.659 31.2849C191.388 30.3694 188.88 29.9116 186.133 29.9116H166.797C164.014 29.9116 161.469 30.3694 159.162 31.2849C156.891 32.1638 154.932 33.4272 153.284 35.0752C151.636 36.6865 150.354 38.6458 149.439 40.9529C148.56 43.2234 148.121 45.7686 148.121 48.5884V63.6396C148.121 66.4595 148.56 69.0229 149.439 71.3301C150.354 73.6006 151.636 75.5598 153.284 77.2078C154.932 78.8191 156.891 80.0825 159.162 80.998C161.469 81.877 164.014 82.3164 166.797 82.3164H186.023C188.807 82.3164 191.333 81.877 193.604 80.998C195.911 80.0825 197.889 78.8191 199.537 77.2078C201.185 75.5598 202.448 73.6006 203.327 71.3301C204.242 69.0229 204.7 66.4595 204.7 63.6396V48.5884ZM311.817 43.2051C311.817 46.4644 311.414 49.3757 310.608 51.9392C309.803 54.5027 308.704 56.7732 307.312 58.7507C305.958 60.6917 304.383 62.3579 302.588 63.7495C300.794 65.1411 298.908 66.2947 296.93 67.2102C294.99 68.0891 293.012 68.73 290.998 69.1328C289.02 69.5356 287.153 69.7371 285.395 69.7371L315.223 95.5H293.14L263.367 69.7371H253.095V55.4548H285.395C287.189 55.3083 288.819 54.9421 290.284 54.3562C291.785 53.7336 293.067 52.9097 294.129 51.8843C295.228 50.8589 296.07 49.6321 296.656 48.2039C297.242 46.739 297.535 45.0728 297.535 43.2051V34.1963C297.535 33.3906 297.425 32.7864 297.205 32.3835C297.022 31.9441 296.766 31.6328 296.436 31.4497C296.143 31.23 295.813 31.1018 295.447 31.0652C295.118 31.0286 294.806 31.0103 294.513 31.0103H247.382V95.5H233.1V23.9241C233.1 22.9353 233.283 22.0015 233.649 21.1226C234.015 20.2437 234.51 19.4746 235.132 18.8154C235.792 18.1562 236.561 17.6436 237.439 17.2773C238.318 16.9111 239.271 16.728 240.296 16.728H294.513C297.699 16.728 300.391 17.314 302.588 18.4858C304.786 19.6211 306.562 21.0676 307.917 22.8254C309.308 24.5466 310.297 26.4143 310.883 28.4285C311.506 30.4426 311.817 32.3286 311.817 34.0864V43.2051ZM401.191 43.0952C401.191 46.3545 400.77 49.2659 399.927 51.8293C399.122 54.3928 398.041 56.6633 396.686 58.6409C395.331 60.5818 393.738 62.248 391.907 63.6396C390.113 65.0312 388.245 66.1848 386.304 67.1003C384.363 67.9792 382.386 68.6201 380.372 69.0229C378.394 69.4258 376.526 69.6272 374.769 69.6272H369.001V95.5H354.609V69.6272H348.896C347.138 69.6272 345.252 69.4258 343.238 69.0229C341.26 68.6201 339.283 67.9792 337.305 67.1003C335.364 66.1848 333.497 65.0312 331.702 63.6396C329.908 62.248 328.315 60.5818 326.923 58.6409C325.568 56.6633 324.469 54.3928 323.627 51.8293C322.822 49.2292 322.419 46.3179 322.419 43.0952V16.728H336.701V43.0952C336.701 44.9629 336.994 46.6475 337.58 48.1489C338.166 49.6138 338.99 50.8772 340.052 51.9392C341.114 53.0012 342.396 53.8252 343.897 54.4111C345.435 54.9604 347.138 55.2351 349.006 55.2351H374.769C376.124 55.0154 377.515 54.7407 378.943 54.4111C380.372 54.0449 381.672 53.4407 382.844 52.5984C384.015 51.7561 384.986 50.5842 385.755 49.0828C386.524 47.5813 386.908 45.5854 386.908 43.0952V16.728H401.191V43.0952ZM450.025 44.853L474.085 16.728H493.586L459.693 56.2239L493.366 95.5H473.975L450.025 67.5947L426.185 95.5H406.739L440.357 56.2239L406.629 16.728H425.965L450.025 44.853Z" fill="url(#paint2_linear_8368_20199)"/>
<defs>
<linearGradient id="paint0_linear_8368_20199" x1="25.3331" y1="0.0078125" x2="25.3331" y2="112.001" gradientUnits="userSpaceOnUse">
<stop stop-color="#FF0099"/>
<stop offset="1" stop-color="#493240"/>
</linearGradient>
<linearGradient id="paint1_linear_8368_20199" x1="86.686" y1="0" x2="86.686" y2="111.983" gradientUnits="userSpaceOnUse">
<stop stop-color="#FF0099"/>
<stop offset="1" stop-color="#493240"/>
</linearGradient>
<linearGradient id="paint2_linear_8368_20199" x1="311.516" y1="16.5" x2="311.516" y2="95.5" gradientUnits="userSpaceOnUse">
<stop stop-color="#FF0099"/>
<stop offset="1" stop-color="#493240"/>
</linearGradient>
</defs>
</svg>
